Coordinates
version=1
nRows=11
nColumns=40
inDegrees=yes

Units are S.I. units (second, meters, Newtons, ...)
Angles are in degrees.

endheader
time	pelvis_tilt	pelvis_list	pelvis_rotation	pelvis_tx	pelvis_ty	pelvis_tz	hip_flexion_r	hip_adduction_r	hip_rotation_r	knee_angle_r	knee_angle_r_beta	ankle_angle_r	subtalar_angle_r	mtp_angle_r	hip_flexion_l	hip_adduction_l	hip_rotation_l	knee_angle_l	knee_angle_l_beta	ankle_angle_l	subtalar_angle_l	mtp_angle_l	lumbar_extension	lumbar_bending	lumbar_rotation	arm_flex_r	arm_add_r	arm_rot_r	elbow_flex_r	pro_sup_r	wrist_flex_r	wrist_dev_r	arm_flex_l	arm_add_l	arm_rot_l	elbow_flex_l	pro_sup_l	wrist_flex_l	wrist_dev_l
     51.14000000	     -3.71435888	     -5.50444293	      0.01257779	      1.08264160	      0.92533956	      0.50206606	     19.88309770	      3.12434669	    -12.00647206	     18.42588955	     18.42588955	      4.67030779	     -3.74038129	     -3.44967106	      6.29765359	    -10.44039727	     -6.47196566	     39.99274463	     39.99274463	     12.35412026	    -11.47732374	    -11.97510835	    -11.08335612	      5.83417550	      0.75387688	     -0.48406155	    -13.24594829	     -1.31001620	     28.58952625	     45.34686009	      0.00000000	      0.00000000	     10.92969158	    -14.58907408	     -8.72723945	     92.08511617	     47.68251033	      0.00000000	      0.00000000
     51.15171429	     -3.73972836	     -5.58150204	      0.27447785	      1.08251535	      0.92623977	      0.50348447	     19.08787082	      3.27642935	    -12.45313300	     17.81783897	     17.81783897	      4.93019680	     -3.11914488	     -3.67927058	      8.46703694	    -10.85211028	     -5.36422276	     44.07972040	     44.07972040	      9.84264881	    -13.19182311	    -12.22521038	    -11.16232371	      5.86697874	      0.71234191	      1.60839963	    -13.38697055	     -0.97339801	     29.57815047	     45.30729284	      0.00000000	      0.00000000	      9.82057725	    -14.11700516	     -8.41938680	     89.95029121	     47.62507284	      0.00000000	      0.00000000
     51.16342857	     -3.69627182	     -5.70321511	      0.52737014	      1.08224062	      0.92701880	      0.50486088	     18.28329101	      3.47149045	    -12.92881551	     17.30104609	     17.30104609	      5.17435437	     -2.55393092	     -3.91732650	     10.67022420	    -11.26924288	     -4.25131546	     48.17069181	     48.17069181	      7.29602942	    -14.66941479	    -12.05071906	    -11.34673332	      5.94133773	      0.79304145	      3.81125990	    -13.57174605	     -0.63306107	     30.61464437	     45.26532707	      0.00000000	      0.00000000	      8.85894326	    -13.52819765	     -8.07391430	     87.86219384	     47.56509605	      0.00000000	      0.00000000
     51.17514286	     -3.70935863	     -5.68004828	      0.77200918	      1.08172510	      0.92769713	      0.50599983	     17.53113785	      3.47423964	    -13.50906967	     16.73189890	     16.73189890	      5.07279672	     -1.78140994	     -5.11921903	     13.04717616	    -11.34328599	     -2.99742096	     52.23443337	     52.23443337	      5.27978618	    -15.83613440	    -10.02143360	    -11.39636052	      5.93232704	      1.26063113	      5.15313339	    -14.71320433	      3.94804536	     33.48589032	     44.94789217	      0.00000000	      0.00000000	      8.91376680	    -12.67819512	     -7.41398688	     83.16455939	     47.50666457	      0.00000000	      0.00000000
     51.18685714	     -3.73724693	     -5.77364156	      1.02653356	      1.08099984	      0.92812729	      0.50724444	     16.91006603	      3.62749587	    -13.96915019	     16.35791069	     16.35791069	      5.33267772	     -1.22472631	     -5.28625147	     15.49061615	    -11.51976367	     -1.76156479	     56.09480093	     56.09480093	      3.38587563	    -16.58353911	     -8.26002458	    -11.50258364	      5.97611815	      1.05302894	      7.54335870	    -14.87470034	      4.44426711	     34.81332775	     44.90386775	      0.00000000	      0.00000000	      7.94420468	    -12.26360292	     -7.35321774	     80.41716744	     47.46120588	      0.00000000	      0.00000000
     51.19857143	     -3.80293647	     -5.89587958	      1.27182962	      1.08003878	      0.92840777	      0.50847281	     16.37627117	      3.81846160	    -14.35737476	     16.02851062	     16.02851062	      5.53115834	     -0.81764579	     -5.41862604	     18.03418865	    -11.63928502	     -0.52612787	     59.75823812	     59.75823812	      2.20898256	    -16.78406098	     -5.43332034	    -11.58818235	      6.04997021	      1.07151230	      9.81882510	    -15.14274630	      5.25146333	     36.27239369	     44.83867579	      0.00000000	      0.00000000	      7.35849300	    -11.63390292	     -7.27017557	     76.93586710	     47.40352815	      0.00000000	      0.00000000
     51.21028571	     -3.87234110	     -6.08732650	      1.51470907	      1.07891715	      0.92849645	      0.50970580	     15.92349519	      4.09014619	    -14.67263489	     15.81473716	     15.81473716	      5.80390388	     -0.57100753	     -5.48431166	     20.70988263	    -11.73159319	      0.76226889	     63.35743905	     63.35743905	      2.76813954	    -16.05030767	      0.53405898	    -11.69052964	      6.14972945	      1.64054778	     11.41941987	    -16.19851426	      7.86542301	     38.90719780	     44.69913205	      0.00000000	      0.00000000	      7.27329168	    -10.82574350	     -6.79122324	     73.12338919	     47.34007928	      0.00000000	      0.00000000
     51.22200000	     -3.98915488	     -6.32926370	      1.78823373	      1.07765754	      0.92844718	      0.51100088	     15.52463410	      4.43938239	    -14.91793635	     15.56823411	     15.56823411	      6.06225986	     -0.50283601	     -5.50480860	     23.17469901	    -11.86199275	      1.95390793	     66.03597912	     66.03597912	      1.57461878	    -16.29726480	      0.97357071	    -11.77542559	      6.28161276	      1.51929870	     13.86030104	    -16.23328464	      7.84187272	     40.12580924	     44.67942224	      0.00000000	      0.00000000	      6.18831749	    -10.47076789	     -6.57380862	     70.94347564	     47.28119150	      0.00000000	      0.00000000
     51.23371429	     -4.09168946	     -6.40619878	      2.02885894	      1.07635891	      0.92857146	      0.51218048	     15.14205776	      4.60930650	    -15.05816713	     15.38311409	     15.38311409	      6.30977358	     -0.49005822	     -5.46365414	     25.49543009	    -11.77016564	      2.94589324	     68.19975930	     68.19975930	      1.15413730	    -16.21087440	      2.25757717	    -11.77542214	      6.25241293	      1.24249074	     16.39215206	    -16.21989407	      8.43964499	     41.78957486	     44.62302542	      0.00000000	      0.00000000	      5.86070516	    -10.00138067	     -6.80415103	     66.16656038	     47.22175883	      0.00000000	      0.00000000
     51.24542857	     -4.20133034	     -6.59949530	      2.25765966	      1.07496502	      0.92860791	      0.51336490	     14.79170725	      4.91438038	    -15.17374756	     15.22504681	     15.22504681	      6.65084592	     -0.49102200	     -5.20508762	     27.83905287	    -11.76789704	      3.90405404	     70.03087255	     70.03087255	      1.71296733	    -15.81991799	      4.81196730	    -11.79288291	      6.30139084	      1.87053071	     18.06820443	    -17.24245144	     10.24893961	     44.41487299	     44.52240425	      0.00000000	      0.00000000	      6.52253974	     -8.89130511	     -7.17427874	     60.30558202	     47.17206993	      0.00000000	      0.00000000
     51.25714286	     -4.31354035	     -6.72111636	      2.51467152	      1.07355718	      0.92872650	      0.51441082	     14.42093333	      5.14995823	    -15.22082893	     15.00876178	     15.00876178	      6.92405739	     -0.65041181	     -5.05855622	     29.96081177	    -11.68031875	      4.69644549	     71.10795510	     71.10795510	      1.72226523	    -15.85741643	      5.15880665	    -11.84679611	      6.28677461	      1.70083882	     20.47033273	    -17.30588146	     10.69403228	     46.16065611	     44.48756629	      0.00000000	      0.00000000	      6.09351335	     -8.51441947	     -7.30794910	     56.19011088	     47.12362568	      0.00000000	      0.00000000
